<?xml version="1.0" standalone="no"?>
<!DOCTYPE svg PUBLIC "-//W3C//DTD SVG 20010904//EN"
 "http://www.w3.org/TR/2001/REC-SVG-20010904/DTD/svg10.dtd">
<svg version="1.0" xmlns="http://www.w3.org/2000/svg"
 width="300.000000pt" height="117.000000pt" viewBox="0 0 300.000000 117.000000"
 preserveAspectRatio="xMidYMid meet">

<g transform="translate(0.000000,117.000000) scale(0.100000,-0.100000)"
fill="#000000" stroke="none">
<path d="M90 615 l0 -465 390 0 390 0 0 -75 0 -75 310 0 310 0 0 75 0 75 700
0 700 0 0 465 0 465 -1400 0 -1400 0 0 -465z m780 0 l0 -315 -80 0 -80 0 0
230 0 230 -75 0 -75 0 0 -230 0 -230 -160 0 -160 0 0 315 0 315 315 0 315 0 0
-315z m780 0 l0 -315 -155 0 -154 0 -3 -77 -3 -78 -155 0 -155 0 -3 393 -2
392 315 0 315 0 0 -315z m1090 0 l0 -315 -80 0 -80 0 0 230 0 230 -75 0 -75 0
0 -230 0 -230 -80 0 -80 0 0 230 0 230 -75 0 -75 0 0 -230 0 -230 -160 0 -160
0 0 315 0 315 470 0 470 0 0 -315z"/>
<path d="M1340 610 l0 -150 75 0 75 0 0 150 0 150 -75 0 -75 0 0 -150z"/>
</g>
</svg>
