<?xml version="1.0" standalone="no"?>
<!DOCTYPE svg PUBLIC "-//W3C//DTD SVG 20010904//EN"
 "http://www.w3.org/TR/2001/REC-SVG-20010904/DTD/svg10.dtd">
<svg version="1.0" xmlns="http://www.w3.org/2000/svg"
 width="262.000000pt" height="212.000000pt" viewBox="0 0 262.000000 212.000000"
 preserveAspectRatio="xMidYMid meet">

<g transform="translate(0.000000,212.000000) scale(0.100000,-0.100000)"
fill="#000000" stroke="none">
<path d="M0 1060 l0 -1060 1310 0 1310 0 0 1060 0 1060 -1310 0 -1310 0 0
-1060z m1147 967 c74 -30 145 -76 239 -155 l69 -58 69 58 c234 196 413 238
531 124 68 -66 89 -134 88 -286 0 -78 -7 -153 -17 -199 -9 -41 -15 -75 -14
-76 2 -1 32 -12 68 -25 176 -60 323 -160 373 -254 29 -56 29 -146 0 -202 -50
-95 -198 -195 -375 -254 -38 -13 -68 -24 -68 -26 0 -1 7 -36 16 -76 10 -45 17
-121 17 -198 0 -107 -3 -133 -22 -183 -26 -67 -58 -107 -109 -139 -52 -32
-165 -31 -242 2 -74 32 -173 96 -251 162 l-65 55 -49 -44 c-66 -59 -197 -144
-265 -173 -78 -33 -190 -34 -242 -2 -51 32 -83 72 -109 139 -19 50 -22 76 -22
183 0 77 7 153 17 198 9 40 16 75 16 76 0 2 -30 13 -67 26 -178 59 -326 159
-376 254 -29 56 -29 146 0 202 50 94 197 194 373 254 36 13 66 24 68 25 1 1
-5 35 -14 76 -10 46 -17 121 -17 199 0 107 3 133 23 185 26 68 87 135 141 153
51 17 146 8 216 -21z"/>
<path d="M979 1960 c-84 -23 -111 -74 -117 -220 -4 -92 16 -261 31 -277 2 -2
58 6 123 17 65 11 133 20 149 20 23 0 36 8 53 34 13 18 56 74 97 122 l74 89
-42 37 c-59 53 -180 136 -222 154 -51 21 -116 32 -146 24z"/>
<path d="M1864 1959 c-22 -4 -57 -14 -78 -23 -43 -18 -163 -101 -223 -154
l-42 -37 74 -89 c41 -48 84 -104 97 -122 17 -26 30 -34 53 -34 17 0 84 -9 149
-20 65 -11 121 -19 123 -17 2 3 11 42 19 88 23 118 16 279 -14 336 -32 61 -85
85 -158 72z"/>
<path d="M1419 1633 c-38 -42 -89 -108 -89 -114 0 -2 56 -4 125 -4 69 0 125 2
125 4 0 8 -79 106 -103 129 l-24 23 -34 -38z"/>
<path d="M1265 1413 c-23 -4 -95 -113 -174 -263 l-50 -95 50 -95 c76 -145 150
-258 173 -264 27 -7 355 -7 382 0 23 6 96 118 173 264 l50 95 -50 95 c-27 52
-73 132 -101 177 -41 65 -57 82 -81 87 -32 7 -339 6 -372 -1z m280 -181 c71
-35 105 -93 105 -179 0 -97 -56 -168 -152 -194 -59 -16 -149 11 -189 57 -66
75 -66 203 0 278 52 59 158 77 236 38z"/>
<path d="M1005 1383 c-43 -8 -81 -15 -83 -17 -3 -3 30 -101 57 -170 12 -29 12
-28 76 85 36 62 65 114 65 116 0 5 -32 1 -115 -14z"/>
<path d="M1790 1397 c0 -2 29 -54 65 -116 64 -113 64 -114 76 -85 26 67 60
167 57 169 -3 3 -176 35 -190 35 -5 0 -8 -1 -8 -3z"/>
<path d="M709 1301 c-141 -56 -231 -118 -265 -182 -18 -36 -18 -92 0 -128 33
-63 142 -137 271 -184 122 -44 108 -50 145 55 18 51 43 115 55 142 l22 50 -37
91 c-21 50 -45 115 -54 143 -10 29 -23 52 -29 52 -7 0 -55 -18 -108 -39z"/>
<path d="M2064 1288 c-9 -28 -33 -93 -54 -143 l-37 -91 22 -50 c12 -27 37 -91
55 -142 37 -105 23 -99 145 -55 39 14 95 39 125 56 254 143 206 313 -127 441
-51 20 -97 36 -102 36 -5 0 -17 -23 -27 -52z"/>
<path d="M979 914 c-25 -65 -60 -167 -57 -169 7 -6 190 -36 194 -32 2 2 -25
55 -61 117 -64 112 -64 113 -76 84z"/>
<path d="M1852 827 c-34 -60 -60 -112 -58 -114 2 -2 47 4 100 13 110 20 104 7
59 129 -14 39 -28 73 -32 76 -3 4 -34 -43 -69 -104z"/>
<path d="M878 593 c-7 -33 -13 -117 -13 -193 0 -120 2 -140 22 -176 12 -23 33
-48 47 -57 56 -37 180 -12 280 58 70 47 165 128 165 140 1 6 -30 48 -69 94
-38 46 -80 99 -92 117 -20 29 -28 32 -91 39 -38 3 -103 13 -144 21 -41 8 -79
14 -83 14 -5 0 -15 -26 -22 -57z"/>
<path d="M1920 635 c-36 -7 -97 -16 -135 -20 -65 -6 -73 -10 -93 -39 -12 -18
-54 -71 -92 -117 -39 -46 -70 -88 -69 -94 0 -12 95 -93 165 -140 100 -70 224
-95 280 -58 14 9 35 34 47 57 20 36 22 56 22 176 0 154 -17 251 -43 249 -9 -1
-46 -7 -82 -14z"/>
<path d="M1330 591 c0 -8 118 -151 125 -151 7 0 125 143 125 151 0 5 -56 8
-125 8 -69 0 -125 -3 -125 -8z"/>
</g>
</svg>
