<?xml version="1.0" standalone="no"?>
<!DOCTYPE svg PUBLIC "-//W3C//DTD SVG 20010904//EN"
 "http://www.w3.org/TR/2001/REC-SVG-20010904/DTD/svg10.dtd">
<svg version="1.0" xmlns="http://www.w3.org/2000/svg"
 width="600.000000pt" height="600.000000pt" viewBox="0 0 600.000000 600.000000"
 preserveAspectRatio="xMidYMid meet">

<g transform="translate(0.000000,600.000000) scale(0.100000,-0.100000)"
fill="#000000" stroke="none">
<path d="M2232 5278 c-11 -18 -178 -314 -372 -658 -289 -514 -350 -628 -342
-645 9 -19 721 -1287 727 -1293 1 -1 168 291 370 650 202 359 372 656 378 660
7 5 337 7 735 5 443 -1 722 2 722 7 0 9 -81 157 -142 259 -15 26 -28 49 -28
52 0 2 -13 26 -29 53 -15 26 -41 70 -56 98 -15 27 -100 177 -188 334 -88 157
-171 305 -185 330 -14 25 -43 75 -65 113 l-39 67 -733 0 -733 0 -20 -32z"/>
<path d="M3712 3288 c-11 -18 -174 -307 -362 -643 -189 -335 -347 -616 -353
-622 -7 -10 -172 -13 -741 -15 l-732 -3 99 -175 c54 -96 113 -200 130 -230 16
-30 58 -104 92 -165 100 -177 105 -184 173 -305 125 -224 166 -296 202 -360
l35 -65 740 -2 740 -3 369 656 c330 586 368 658 358 679 -6 13 -51 95 -100
182 -49 87 -207 367 -351 623 -144 256 -266 469 -270 473 -5 5 -17 -6 -29 -25z"/>
</g>
</svg>
